<svg width="24" height="25" viewBox="0 0 24 25" fill="none" xmlns="http://www.w3.org/2000/svg">
<path opacity="0.2" d="M19.5 6.5H16.4995L14.9995 4.25H8.99945L7.49945 6.5H4.5C4.10218 6.5 3.72064 6.65804 3.43934 6.93934C3.15804 7.22064 3 7.60218 3 8V18.5C3 18.8978 3.15804 19.2794 3.43934 19.5607C3.72064 19.842 4.10218 20 4.5 20H19.5C19.8978 20 20.2794 19.842 20.5607 19.5607C20.842 19.2794 21 18.8978 21 18.5V8C21 7.60218 20.842 7.22064 20.5607 6.93934C20.2794 6.65804 19.8978 6.5 19.5 6.5ZM12 16.25C11.3325 16.25 10.68 16.0521 10.125 15.6812C9.56993 15.3104 9.13735 14.7833 8.88191 14.1666C8.62646 13.5499 8.55962 12.8713 8.68985 12.2166C8.82007 11.5619 9.14151 10.9605 9.61351 10.4885C10.0855 10.0165 10.6869 9.69507 11.3416 9.56485C11.9963 9.43462 12.6749 9.50146 13.2916 9.75691C13.9083 10.0124 14.4354 10.4449 14.8062 11C15.1771 11.555 15.375 12.2075 15.375 12.875C15.375 13.7701 15.0194 14.6285 14.3865 15.2615C13.7535 15.8944 12.8951 16.25 12 16.25Z" fill="#1D2026"/>
<path d="M19.5 20H4.5C4.10218 20 3.72064 19.842 3.43934 19.5607C3.15804 19.2794 3 18.8978 3 18.5V8C3 7.60218 3.15804 7.22064 3.43934 6.93934C3.72064 6.65804 4.10218 6.5 4.5 6.5H7.49945L8.99945 4.25H14.9995L16.4995 6.5H19.5C19.8978 6.5 20.2794 6.65804 20.5607 6.93934C20.842 7.22064 21 7.60218 21 8V18.5C21 18.8978 20.842 19.2794 20.5607 19.5607C20.2794 19.842 19.8978 20 19.5 20Z" stroke="#1D2026" stroke-width="1.5" stroke-linecap="round" stroke-linejoin="round"/>
<path d="M12 16.25C13.864 16.25 15.375 14.739 15.375 12.875C15.375 11.011 13.864 9.5 12 9.5C10.136 9.5 8.625 11.011 8.625 12.875C8.625 14.739 10.136 16.25 12 16.25Z" stroke="#1D2026" stroke-width="1.5" stroke-linecap="round" stroke-linejoin="round"/>
</svg>
