<svg width="24" height="24" viewBox="0 0 24 24" fill="none" xmlns="http://www.w3.org/2000/svg">
<g opacity="0.9">
<path d="M13.525 12C13.525 11.1578 12.8422 10.475 12 10.475C11.1578 10.475 10.475 11.1578 10.475 12C10.475 12.8422 11.1578 13.525 12 13.525C12.8422 13.525 13.525 12.8422 13.525 12Z" fill="#8C94A3" stroke="#8C94A3" stroke-width="0.8"/>
<path d="M13.525 5C13.525 4.15777 12.8422 3.475 12 3.475C11.1578 3.475 10.475 4.15777 10.475 5C10.475 5.84223 11.1578 6.525 12 6.525C12.8422 6.525 13.525 5.84223 13.525 5Z" fill="#8C94A3" stroke="#8C94A3" stroke-width="0.8"/>
<path d="M13.525 19C13.525 18.1578 12.8422 17.475 12 17.475C11.1578 17.475 10.475 18.1578 10.475 19C10.475 19.8422 11.1578 20.525 12 20.525C12.8422 20.525 13.525 19.8422 13.525 19Z" fill="#8C94A3" stroke="#8C94A3" stroke-width="0.8"/>
</g>
</svg>
