<svg width="60" height="60" viewBox="0 0 60 60" fill="none" xmlns="http://www.w3.org/2000/svg">
<rect width="60" height="60" fill="#FFF0F0"/>
<path opacity="0.2" d="M30 18C27.5726 18 25.2022 18.7362 23.2019 20.1114C21.2016 21.4866 19.6653 23.436 18.796 25.7025C17.9266 27.9689 17.7651 30.4457 18.3326 32.8058C18.9002 35.166 20.1701 37.2985 21.9749 38.9219V38.9217C22.7278 37.4405 23.8761 36.1966 25.2926 35.3279C26.709 34.4592 28.3384 33.9996 30 34C29.0111 34 28.0444 33.7068 27.2222 33.1573C26.3999 32.6079 25.759 31.827 25.3806 30.9134C25.0022 29.9998 24.9032 28.9945 25.0961 28.0245C25.289 27.0546 25.7652 26.1637 26.4645 25.4645C27.1637 24.7652 28.0546 24.289 29.0246 24.0961C29.9945 23.9031 30.9998 24.0022 31.9134 24.3806C32.8271 24.759 33.6079 25.3999 34.1574 26.2221C34.7068 27.0444 35 28.0111 35 29C35 30.3261 34.4732 31.5978 33.5355 32.5355C32.5979 33.4732 31.3261 34 30 34C31.6616 33.9996 33.291 34.4592 34.7074 35.3279C36.1239 36.1966 37.2722 37.4405 38.0252 38.9217C39.8299 37.2984 41.0999 35.1658 41.6674 32.8057C42.2349 30.4456 42.0734 27.9688 41.204 25.7024C40.3347 23.436 38.7984 21.4865 36.7981 20.1113C34.7978 18.7362 32.4274 18 30 18V18Z" fill="#E34444"/>
<path d="M30 42C36.6274 42 42 36.6274 42 30C42 23.3726 36.6274 18 30 18C23.3726 18 18 23.3726 18 30C18 36.6274 23.3726 42 30 42Z" stroke="#E34444" stroke-width="2" stroke-miterlimit="10"/>
<path d="M30 34C32.7614 34 35 31.7614 35 29C35 26.2386 32.7614 24 30 24C27.2386 24 25 26.2386 25 29C25 31.7614 27.2386 34 30 34Z" stroke="#E34444" stroke-width="2" stroke-miterlimit="10"/>
<path d="M21.9766 38.9218C22.7298 37.4408 23.8782 36.1971 25.2946 35.3284C26.711 34.4598 28.3401 34 30.0017 34C31.6632 34 33.2923 34.4598 34.7087 35.3284C36.1251 36.1971 37.2735 37.4407 38.0268 38.9217" stroke="#E34444" stroke-width="2" stroke-linecap="round" stroke-linejoin="round"/>
</svg>
