<svg width="24" height="24" viewBox="0 0 24 24" fill="none" xmlns="http://www.w3.org/2000/svg">
<path d="M12 16.5C14.4853 16.5 16.5 14.4853 16.5 12C16.5 9.51472 14.4853 7.5 12 7.5C9.51472 7.5 7.5 9.51472 7.5 12C7.5 14.4853 9.51472 16.5 12 16.5Z" stroke="#8C94A3" stroke-width="1.5" stroke-linecap="round" stroke-linejoin="round"/>
<path d="M11.5213 4.13952L9.75224 2.81315C9.65733 2.74175 9.5468 2.69393 9.42978 2.67363C9.31275 2.65332 9.19258 2.66112 9.07916 2.69638C8.53128 2.86794 7.99973 3.08787 7.49079 3.35355C7.38544 3.40881 7.29474 3.48834 7.22617 3.58556C7.15761 3.68278 7.11315 3.79492 7.09646 3.91271L6.78374 6.10186C6.66454 6.20753 6.54784 6.31742 6.43364 6.43156C6.31947 6.54573 6.20955 6.66246 6.10386 6.78176L6.10382 6.78179L3.91505 7.09479C3.79745 7.11142 3.68548 7.15576 3.58838 7.22415C3.49127 7.29254 3.41181 7.38303 3.35654 7.48816C3.09045 7.99689 2.8701 8.52826 2.69809 9.076C2.66267 9.18957 2.65476 9.30994 2.67503 9.42717C2.69529 9.5444 2.74315 9.65513 2.81464 9.75022L4.14147 11.5193C4.1319 11.6783 4.12709 11.8385 4.12704 12C4.12704 12.1615 4.13186 12.3217 4.14148 12.4808L4.14147 12.4809L2.81511 14.2499C2.74371 14.3448 2.69588 14.4553 2.67558 14.5723C2.65528 14.6894 2.66307 14.8095 2.69833 14.923C2.8699 15.4708 3.08982 16.0024 3.3555 16.5113C3.41076 16.6167 3.49029 16.7074 3.58751 16.776C3.68474 16.8445 3.79687 16.889 3.91467 16.9057L6.10381 17.2184C6.20948 17.3376 6.31937 17.4543 6.43351 17.5685C6.54767 17.6827 6.66441 17.7926 6.78371 17.8983L6.78374 17.8983L7.09674 20.0871C7.11337 20.2047 7.15771 20.3167 7.2261 20.4138C7.29449 20.5109 7.38498 20.5903 7.49011 20.6456C7.99884 20.9117 8.53021 21.132 9.07795 21.304C9.19152 21.3395 9.31189 21.3474 9.42912 21.3271C9.54635 21.3068 9.65708 21.259 9.75217 21.1875L11.5213 19.8607C11.6803 19.8702 11.8405 19.875 12.0019 19.8751C12.1634 19.8751 12.3237 19.8703 12.4828 19.8607L12.4828 19.8607L14.2518 21.187C14.3468 21.2584 14.4573 21.3063 14.5743 21.3266C14.6913 21.3469 14.8115 21.3391 14.9249 21.3038C15.4728 21.1322 16.0043 20.9123 16.5133 20.6466C16.6186 20.5914 16.7093 20.5118 16.7779 20.4146C16.8465 20.3174 16.8909 20.2053 16.9076 20.0875L17.2203 17.8983C17.3395 17.7927 17.4562 17.6828 17.5704 17.5686C17.6846 17.4545 17.7945 17.3377 17.9002 17.2184L17.9003 17.2184L20.089 16.9054C20.2066 16.8888 20.3186 16.8444 20.4157 16.776C20.5128 16.7076 20.5923 16.6172 20.6475 16.512C20.9136 16.0033 21.134 15.4719 21.306 14.9242C21.3414 14.8106 21.3493 14.6902 21.3291 14.573C21.3088 14.4558 21.2609 14.3451 21.1894 14.25L19.8626 12.4809C19.8722 12.3219 19.877 12.1616 19.877 12.0002C19.877 11.8387 19.8722 11.6785 19.8626 11.5194L19.8626 11.5193L21.189 9.75029C21.2604 9.65538 21.3082 9.54485 21.3285 9.42783C21.3488 9.3108 21.341 9.19063 21.3058 9.07721C21.1342 8.52933 20.9143 7.99778 20.6486 7.48884C20.5933 7.38349 20.5138 7.29279 20.4166 7.22422C20.3193 7.15566 20.2072 7.1112 20.0894 7.09452L17.9003 6.78179C17.7946 6.66259 17.6847 6.54589 17.5706 6.43169C17.4564 6.31752 17.3397 6.2076 17.2204 6.10191L17.2203 6.10186L16.9073 3.9131C16.8907 3.7955 16.8464 3.68353 16.778 3.58642C16.7096 3.48932 16.6191 3.40986 16.514 3.35459C16.0052 3.08849 15.4739 2.86814 14.9261 2.69613C14.8126 2.66071 14.6922 2.65281 14.575 2.67307C14.4577 2.69334 14.347 2.7412 14.2519 2.81269L12.4828 4.13952C12.3238 4.12995 12.1636 4.12514 12.0021 4.12509C11.8407 4.12509 11.6804 4.1299 11.5213 4.13953L11.5213 4.13952Z" stroke="#8C94A3" stroke-width="1.5" stroke-linecap="round" stroke-linejoin="round"/>
</svg>
