<svg width="109" height="20" viewBox="0 0 109 20" fill="none" xmlns="http://www.w3.org/2000/svg">
<path d="M10.8446 14.901L14.7849 17.3974C15.2886 17.7165 15.9139 17.2419 15.7644 16.654L14.626 12.1756C14.5939 12.0509 14.5977 11.9197 14.637 11.797C14.6762 11.6743 14.7492 11.5652 14.8477 11.4822L18.3811 8.54132C18.8453 8.1549 18.6057 7.38439 18.0092 7.34568L13.3949 7.0462C13.2706 7.03732 13.1514 6.99332 13.0511 6.91931C12.9509 6.84531 12.8737 6.74435 12.8286 6.62819L11.1076 2.29436C11.0609 2.17106 10.9777 2.06492 10.8692 1.99002C10.7606 1.91511 10.6319 1.875 10.5 1.875C10.3681 1.875 10.2394 1.91511 10.1309 1.99002C10.0223 2.06492 9.93914 2.17106 9.89236 2.29436L8.1714 6.62819C8.12631 6.74435 8.04914 6.84531 7.9489 6.91931C7.84865 6.99332 7.72944 7.03732 7.60515 7.0462L2.99078 7.34568C2.39429 7.38439 2.15466 8.1549 2.61894 8.54132L6.15232 11.4822C6.25079 11.5652 6.32383 11.6743 6.36305 11.797C6.40226 11.9197 6.40606 12.0509 6.374 12.1756L5.31824 16.3288C5.13889 17.0343 5.88929 17.6038 6.49369 17.2209L10.1554 14.901C10.2584 14.8354 10.3779 14.8006 10.5 14.8006C10.6221 14.8006 10.7416 14.8354 10.8446 14.901V14.901Z" fill="#FD8E1F"/>
<path d="M32.8446 14.901L36.7849 17.3974C37.2886 17.7165 37.9139 17.2419 37.7644 16.654L36.626 12.1756C36.5939 12.0509 36.5977 11.9197 36.637 11.797C36.6762 11.6743 36.7492 11.5652 36.8477 11.4822L40.3811 8.54132C40.8453 8.1549 40.6057 7.38439 40.0092 7.34568L35.3949 7.0462C35.2706 7.03732 35.1514 6.99332 35.0511 6.91931C34.9509 6.84531 34.8737 6.74435 34.8286 6.62819L33.1076 2.29436C33.0609 2.17106 32.9777 2.06492 32.8692 1.99002C32.7606 1.91511 32.6319 1.875 32.5 1.875C32.3681 1.875 32.2394 1.91511 32.1309 1.99002C32.0223 2.06492 31.9391 2.17106 31.8924 2.29436L30.1714 6.62819C30.1263 6.74435 30.0491 6.84531 29.9489 6.91931C29.8486 6.99332 29.7294 7.03732 29.6052 7.0462L24.9908 7.34568C24.3943 7.38439 24.1547 8.1549 24.6189 8.54132L28.1523 11.4822C28.2508 11.5652 28.3238 11.6743 28.363 11.797C28.4023 11.9197 28.4061 12.0509 28.374 12.1756L27.3182 16.3288C27.1389 17.0343 27.8893 17.6038 28.4937 17.2209L32.1554 14.901C32.2584 14.8354 32.3779 14.8006 32.5 14.8006C32.6221 14.8006 32.7416 14.8354 32.8446 14.901V14.901Z" fill="#FD8E1F"/>
<path d="M54.8446 14.901L58.7849 17.3974C59.2886 17.7165 59.9139 17.2419 59.7644 16.654L58.626 12.1756C58.5939 12.0509 58.5977 11.9197 58.637 11.797C58.6762 11.6743 58.7492 11.5652 58.8477 11.4822L62.3811 8.54132C62.8453 8.1549 62.6057 7.38439 62.0092 7.34568L57.3949 7.0462C57.2706 7.03732 57.1514 6.99332 57.0511 6.91931C56.9509 6.84531 56.8737 6.74435 56.8286 6.62819L55.1076 2.29436C55.0609 2.17106 54.9777 2.06492 54.8692 1.99002C54.7606 1.91511 54.6319 1.875 54.5 1.875C54.3681 1.875 54.2394 1.91511 54.1309 1.99002C54.0223 2.06492 53.9391 2.17106 53.8924 2.29436L52.1714 6.62819C52.1263 6.74435 52.0491 6.84531 51.9489 6.91931C51.8486 6.99332 51.7294 7.03732 51.6052 7.0462L46.9908 7.34568C46.3943 7.38439 46.1547 8.1549 46.6189 8.54132L50.1523 11.4822C50.2508 11.5652 50.3238 11.6743 50.363 11.797C50.4023 11.9197 50.4061 12.0509 50.374 12.1756L49.3182 16.3288C49.1389 17.0343 49.8893 17.6038 50.4937 17.2209L54.1554 14.901C54.2584 14.8354 54.3779 14.8006 54.5 14.8006C54.6221 14.8006 54.7416 14.8354 54.8446 14.901V14.901Z" fill="#FD8E1F"/>
<path d="M76.8446 14.901L80.7849 17.3974C81.2886 17.7165 81.9139 17.2419 81.7644 16.654L80.626 12.1756C80.5939 12.0509 80.5977 11.9197 80.637 11.797C80.6762 11.6743 80.7492 11.5652 80.8477 11.4822L84.3811 8.54132C84.8453 8.1549 84.6057 7.38439 84.0092 7.34567L79.3949 7.0462C79.2706 7.03732 79.1514 6.99332 79.0511 6.91931C78.9509 6.84531 78.8737 6.74435 78.8286 6.62819L77.1076 2.29436C77.0609 2.17106 76.9777 2.06492 76.8692 1.99002C76.7606 1.91511 76.6319 1.875 76.5 1.875C76.3681 1.875 76.2394 1.91511 76.1309 1.99002C76.0223 2.06492 75.9391 2.17106 75.8924 2.29436L74.1714 6.62819C74.1263 6.74435 74.0491 6.84531 73.9489 6.91931C73.8486 6.99332 73.7294 7.03732 73.6052 7.0462L68.9908 7.34567C68.3943 7.38439 68.1547 8.1549 68.6189 8.54132L72.1523 11.4822C72.2508 11.5652 72.3238 11.6743 72.363 11.797C72.4023 11.9197 72.4061 12.0509 72.374 12.1756L71.3182 16.3288C71.1389 17.0343 71.8893 17.6038 72.4937 17.2209L76.1554 14.901C76.2584 14.8354 76.3779 14.8006 76.5 14.8006C76.6221 14.8006 76.7416 14.8354 76.8446 14.901Z" fill="#FD8E1F"/>
<path d="M98.8446 14.901L102.785 17.3974C103.289 17.7165 103.914 17.2419 103.764 16.654L102.626 12.1756C102.594 12.0509 102.598 11.9197 102.637 11.797C102.676 11.6743 102.749 11.5652 102.848 11.4822L106.381 8.54132C106.845 8.1549 106.606 7.38439 106.009 7.34568L101.395 7.0462C101.271 7.03732 101.151 6.99332 101.051 6.91931C100.951 6.84531 100.874 6.74435 100.829 6.62819L99.1076 2.29436C99.0609 2.17106 98.9777 2.06492 98.8692 1.99002C98.7606 1.91511 98.6319 1.875 98.5 1.875C98.3681 1.875 98.2394 1.91511 98.1309 1.99002C98.0223 2.06492 97.9391 2.17106 97.8924 2.29436L96.1714 6.62819C96.1263 6.74435 96.0491 6.84531 95.9489 6.91931C95.8486 6.99332 95.7294 7.03732 95.6052 7.0462L90.9908 7.34568C90.3943 7.38439 90.1547 8.1549 90.6189 8.54132L94.1523 11.4822C94.2508 11.5652 94.3238 11.6743 94.363 11.797C94.4023 11.9197 94.4061 12.0509 94.374 12.1756L93.3182 16.3288C93.1389 17.0343 93.8893 17.6038 94.4937 17.2209L98.1554 14.901C98.2584 14.8354 98.3779 14.8006 98.5 14.8006C98.6221 14.8006 98.7416 14.8354 98.8446 14.901V14.901Z" stroke="#FD8E1F" stroke-linecap="round" stroke-linejoin="round"/>
<mask id="mask0_30_10151" style="mask-type:alpha" maskUnits="userSpaceOnUse" x="88" y="0" width="11" height="21">
<path d="M98.5 0.5H88.5V20.5H98.5V0.5Z" fill="white"/>
</mask>
<g mask="url(#mask0_30_10151)">
<path d="M98.8446 14.901L102.785 17.3974C103.289 17.7165 103.914 17.2419 103.764 16.654L102.626 12.1756C102.594 12.0509 102.598 11.9197 102.637 11.797C102.676 11.6743 102.749 11.5652 102.848 11.4822L106.381 8.54132C106.845 8.1549 106.606 7.38439 106.009 7.34567L101.395 7.0462C101.271 7.03732 101.151 6.99332 101.051 6.91931C100.951 6.84531 100.874 6.74435 100.829 6.62819L99.1076 2.29436C99.0609 2.17106 98.9777 2.06492 98.8692 1.99002C98.7606 1.91511 98.6319 1.875 98.5 1.875C98.3681 1.875 98.2394 1.91511 98.1309 1.99002C98.0223 2.06492 97.9391 2.17106 97.8924 2.29436L96.1714 6.62819C96.1263 6.74435 96.0491 6.84531 95.9489 6.91931C95.8486 6.99332 95.7294 7.03732 95.6052 7.0462L90.9908 7.34567C90.3943 7.38439 90.1547 8.1549 90.6189 8.54132L94.1523 11.4822C94.2508 11.5652 94.3238 11.6743 94.363 11.797C94.4023 11.9197 94.4061 12.0509 94.374 12.1756L93.3182 16.3288C93.1389 17.0343 93.8893 17.6038 94.4937 17.2209L98.1554 14.901C98.2584 14.8354 98.3779 14.8006 98.5 14.8006C98.6221 14.8006 98.7416 14.8354 98.8446 14.901Z" fill="#FD8E1F"/>
</g>
</svg>
