<svg width="33" height="32" viewBox="0 0 33 32" fill="none" xmlns="http://www.w3.org/2000/svg">
<rect x="0.710938" width="32" height="32" rx="16" fill="#3A6BE4"/>
<path d="M11.5502 19.0625C10.8048 17.8058 10.5437 16.3202 10.8161 14.8847C11.0884 13.4492 11.8754 12.1625 13.0294 11.2661C14.1833 10.3698 15.6247 9.92559 17.083 10.0168C18.5413 10.1081 19.9161 10.7286 20.9493 11.7617C21.9825 12.7949 22.603 14.1697 22.6942 15.628C22.7855 17.0863 22.3412 18.5277 21.4449 19.6817C20.5486 20.8356 19.2619 21.6226 17.8264 21.895C16.3908 22.1673 14.9053 21.9063 13.6486 21.1608L13.6486 21.1608L11.5763 21.7529C11.4906 21.7774 11.3999 21.7785 11.3135 21.7561C11.2272 21.7337 11.1485 21.6887 11.0854 21.6256C11.0224 21.5626 10.9773 21.4838 10.9549 21.3975C10.9326 21.3112 10.9337 21.2205 10.9582 21.1347L11.5503 19.0624L11.5502 19.0625Z" fill="white"/>
<path d="M16.7109 16.75C17.1252 16.75 17.4609 16.4142 17.4609 16C17.4609 15.5858 17.1252 15.25 16.7109 15.25C16.2967 15.25 15.9609 15.5858 15.9609 16C15.9609 16.4142 16.2967 16.75 16.7109 16.75Z" fill="#3A6BE4"/>
<path d="M13.7109 16.75C14.1252 16.75 14.4609 16.4142 14.4609 16C14.4609 15.5858 14.1252 15.25 13.7109 15.25C13.2967 15.25 12.9609 15.5858 12.9609 16C12.9609 16.4142 13.2967 16.75 13.7109 16.75Z" fill="#3A6BE4"/>
<path d="M19.7109 16.75C20.1252 16.75 20.4609 16.4142 20.4609 16C20.4609 15.5858 20.1252 15.25 19.7109 15.25C19.2967 15.25 18.9609 15.5858 18.9609 16C18.9609 16.4142 19.2967 16.75 19.7109 16.75Z" fill="#3A6BE4"/>
</svg>
