<svg width="22" height="22" viewBox="0 0 22 22" fill="none" xmlns="http://www.w3.org/2000/svg">
<path d="M10.5213 3.13952L8.75224 1.81315C8.65733 1.74175 8.5468 1.69393 8.42978 1.67363C8.31275 1.65332 8.19258 1.66112 8.07916 1.69638C7.53128 1.86794 6.99973 2.08787 6.49079 2.35355C6.38544 2.40881 6.29474 2.48834 6.22617 2.58556C6.15761 2.68278 6.11315 2.79492 6.09646 2.91271L5.78374 5.10186C5.66454 5.20753 5.54784 5.31742 5.43364 5.43156C5.31947 5.54573 5.20955 5.66246 5.10386 5.78176L5.10382 5.78179L2.91505 6.09479C2.79745 6.11142 2.68548 6.15576 2.58838 6.22415C2.49127 6.29254 2.41181 6.38303 2.35654 6.48816C2.09045 6.99689 1.8701 7.52826 1.69809 8.076C1.66267 8.18957 1.65476 8.30994 1.67503 8.42717C1.69529 8.5444 1.74315 8.65513 1.81464 8.75022L3.14147 10.5193C3.1319 10.6783 3.12709 10.8385 3.12704 11C3.12704 11.1615 3.13186 11.3217 3.14148 11.4808L3.14147 11.4809L1.81511 13.2499C1.74371 13.3448 1.69588 13.4553 1.67558 13.5723C1.65528 13.6894 1.66307 13.8095 1.69833 13.923C1.8699 14.4708 2.08982 15.0024 2.3555 15.5113C2.41076 15.6167 2.49029 15.7074 2.58751 15.776C2.68474 15.8445 2.79687 15.889 2.91467 15.9057L5.10381 16.2184C5.20948 16.3376 5.31937 16.4543 5.43351 16.5685C5.54767 16.6827 5.66441 16.7926 5.78371 16.8983L5.78374 16.8983L6.09674 19.0871C6.11337 19.2047 6.15771 19.3167 6.2261 19.4138C6.29449 19.5109 6.38498 19.5903 6.49011 19.6456C6.99884 19.9117 7.53021 20.132 8.07795 20.304C8.19152 20.3395 8.31189 20.3474 8.42912 20.3271C8.54635 20.3068 8.65708 20.259 8.75217 20.1875L10.5213 18.8607C10.6803 18.8702 10.8405 18.875 11.0019 18.8751C11.1634 18.8751 11.3237 18.8703 11.4828 18.8607L11.4828 18.8607L13.2518 20.187C13.3468 20.2584 13.4573 20.3063 13.5743 20.3266C13.6913 20.3469 13.8115 20.3391 13.9249 20.3038C14.4728 20.1322 15.0043 19.9123 15.5133 19.6466C15.6186 19.5914 15.7093 19.5118 15.7779 19.4146C15.8465 19.3174 15.8909 19.2053 15.9076 19.0875L16.2203 16.8983C16.3395 16.7927 16.4562 16.6828 16.5704 16.5686C16.6846 16.4545 16.7945 16.3377 16.9002 16.2184L16.9003 16.2184L19.089 15.9054C19.2066 15.8888 19.3186 15.8444 19.4157 15.776C19.5128 15.7076 19.5923 15.6172 19.6475 15.512C19.9136 15.0033 20.134 14.4719 20.306 13.9242C20.3414 13.8106 20.3493 13.6902 20.3291 13.573C20.3088 13.4558 20.2609 13.3451 20.1894 13.25L18.8626 11.4809C18.8722 11.3219 18.877 11.1616 18.877 11.0002C18.877 10.8387 18.8722 10.6785 18.8626 10.5194L18.8626 10.5193L20.189 8.75029C20.2604 8.65538 20.3082 8.54485 20.3285 8.42783C20.3488 8.3108 20.341 8.19063 20.3058 8.07721C20.1342 7.52933 19.9143 6.99778 19.6486 6.48884C19.5933 6.38349 19.5138 6.29279 19.4166 6.22422C19.3193 6.15566 19.2072 6.1112 19.0894 6.09452L16.9003 5.78179C16.7946 5.66259 16.6847 5.54589 16.5706 5.43169C16.4564 5.31752 16.3397 5.2076 16.2204 5.10191L16.2203 5.10186L15.9073 2.9131C15.8907 2.7955 15.8464 2.68353 15.778 2.58642C15.7096 2.48932 15.6191 2.40986 15.514 2.35459C15.0052 2.08849 14.4739 1.86814 13.9261 1.69613C13.8126 1.66071 13.6922 1.65281 13.575 1.67307C13.4577 1.69334 13.347 1.7412 13.2519 1.81269L11.4828 3.13952C11.3238 3.12995 11.1636 3.12514 11.0021 3.12509C10.8407 3.12509 10.6804 3.1299 10.5213 3.13953L10.5213 3.13952Z" stroke="#8C94A3" stroke-width="1.5" stroke-linecap="round" stroke-linejoin="round"/>
</svg>
